HIERARCHY
ROOT Hips
{
	OFFSET 0.000000 0.000000 0.000000 
	CHANNELS 6 Xposition Yposition Zposition Zrotation Yrotation Xrotation
	JOINT LeftUpLeg
	{
		OFFSET 1.363060 -1.794630 0.839290 
		CHANNELS 3 Zrotation Yrotation Xrotation
		JOINT LeftLeg
		{
			OFFSET 2.448110 -6.726130 0.000000 
			CHANNELS 3 Zrotation Yrotation Xrotation
			JOINT LeftFoot
			{
				OFFSET 2.562200 -7.039590 0.000000 
				CHANNELS 3 Zrotation Yrotation Xrotation
				JOINT LeftToeBase
				{
					OFFSET 0.157640 -0.433110 2.322550 
					CHANNELS 3 Zrotation Yrotation Xrotation
					End Site
					{
						OFFSET 0.000000 0.000000 0.000000 
					}
				}
			}
		}
	}
	JOINT RightUpLeg
	{
		OFFSET -1.305520 -1.794630 0.839290 
		CHANNELS 3 Zrotation Yrotation Xrotation
		JOINT RightLeg
		{
			OFFSET -2.542530 -6.985550 0.000000 
			CHANNELS 3 Zrotation Yrotation Xrotation
			JOINT RightFoot
			{
				OFFSET -2.568260 -7.056230 0.000000 
				CHANNELS 3 Zrotation Yrotation Xrotation
				JOINT RightToeBase
				{
					OFFSET -0.164730 -0.452590 2.363150 
					CHANNELS 3 Zrotation Yrotation Xrotation
					End Site
					{
						OFFSET 0.000000 0.000000 0.000000 
					}
				}
			}
		}
	}
	JOINT Spine
	{
		OFFSET 0.028270 2.035590 -0.193380 
		CHANNELS 3 Zrotation Yrotation Xrotation
		JOINT Spine1
		{
			OFFSET 0.056720 2.048850 -0.042750 
			CHANNELS 3 Zrotation Yrotation Xrotation
			JOINT Neck1
			{
				OFFSET -0.054170 1.746240 0.172020 
				CHANNELS 3 Zrotation Yrotation Xrotation
				JOINT Head
				{
					OFFSET 0.104070 1.761360 -0.123970 
					CHANNELS 3 Zrotation Yrotation Xrotation
					End Site
					{
						OFFSET 0.000000 0.000000 0.000000 
					}
				}
			}
			JOINT LeftArm
			{
				OFFSET 3.362410 1.200890 -0.311210 
				CHANNELS 3 Zrotation Yrotation Xrotation
				JOINT LeftForeArm
				{
					OFFSET 4.983000 -0.000000 -0.000000 
					CHANNELS 3 Zrotation Yrotation Xrotation
					JOINT LeftHand
					{
						OFFSET 3.483560 -0.000000 -0.000000 
						CHANNELS 3 Zrotation Yrotation Xrotation
						JOINT LeftHandIndex1
						{
							OFFSET 0.715260 -0.000000 -0.000000 
							CHANNELS 3 Zrotation Yrotation Xrotation
							End Site
							{
								OFFSET 0.000000 0.000000 0.000000 
							}
						}
					}
				}
			}
			JOINT RightArm
			{
				OFFSET -3.136600 1.374050 -0.404650 
				CHANNELS 3 Zrotation Yrotation Xrotation
				JOINT RightForeArm
				{
					OFFSET -5.241900 -0.000000 -0.000000 
					CHANNELS 3 Zrotation Yrotation Xrotation
					JOINT RightHand
					{
						OFFSET -3.444170 -0.000000 -0.000000 
						CHANNELS 3 Zrotation Yrotation Xrotation
						JOINT RightHandIndex1
						{
							OFFSET -0.622530 -0.000000 -0.000000 
							CHANNELS 3 Zrotation Yrotation Xrotation
							End Site
							{
								OFFSET 0.000000 0.000000 0.000000 
							}
						}
					}
				}
			}
		}
	}
}
MOTION
Frames: 12
Frame Time: 0.041667
-0.327053 17.695529 -0.274822 -1.837895 3.644998 2.498493 -13.762694 -19.846038 -1.279849 -0.297619 4.925151 17.643565 -0.327236 3.017734 -6.980809 0.856600 -5.902200 -16.501000 27.999410 11.750112 6.190995 0.239909 -1.403561 9.967431 1.458549 -11.243348 -9.896679 -0.375000 3.933100 -10.888600 -15.208412 -0.206175 2.693366 -1.907438 0.079551 -1.616128 0.831559 -11.766033 7.937181 2.645400 -6.753800 9.179700 -17.415517 -18.073840 -1.186990 145.693835 -39.700638 -106.822134 5.120952 -1.638827 11.714727 -7.125000 0.000000 0.000000 -14.917147 -4.708729 -7.583168 -153.227739 34.470955 -110.047290 -1.548964 3.273883 20.862061 7.125000 0.000000 0.000000 
-0.326441 17.696447 -0.270946 -1.879783 3.612987 2.476720 -13.735791 -19.839239 -1.195637 -0.310201 4.901346 17.572251 -0.335225 3.068203 -7.028397 0.810900 -5.746800 -16.051400 28.028355 11.730407 6.354758 0.261050 -1.322363 9.747815 1.465752 -11.245786 -9.800804 -0.375200 3.934200 -10.891600 -15.163145 -0.217776 2.701565 -1.895758 0.073621 -1.628736 0.883615 -11.781673 7.870037 2.676800 -6.758000 9.151600 -17.441640 -18.028284 -1.185818 145.721507 -39.677764 -106.841817 5.127433 -1.651208 11.776716 -7.125000 0.000000 0.000000 -14.979980 -4.602954 -7.517506 -153.214381 34.503543 -110.033831 -1.555317 3.268853 20.907185 7.125000 0.000000 0.000000 
-0.325624 17.696549 -0.267783 -1.882397 3.599014 2.486617 -13.736749 -19.864540 -1.133071 -0.321768 4.874053 17.494135 -0.325624 3.031563 -7.064672 0.729600 -5.457400 -15.217800 28.017690 11.709054 6.475882 0.280606 -1.248266 9.544962 1.470089 -11.243589 -9.734776 -0.375100 3.933600 -10.889800 -15.162680 -0.227693 2.710937 -1.887484 0.067360 -1.618795 1.008685 -11.864030 7.718494 2.738900 -6.786600 9.095000 -17.439703 -17.979606 -1.166129 145.785576 -39.626480 -106.883201 5.132420 -1.636562 11.742734 -7.125000 0.000000 0.000000 -15.034480 -4.575457 -7.528590 -153.262004 34.470044 -110.067486 -1.562155 3.258938 20.860352 7.125000 0.000000 0.000000 
-0.325522 17.699201 -0.265437 -1.841622 3.583485 2.520200 -13.778440 -19.941379 -1.058201 -0.339112 4.836196 17.386791 -0.346659 3.122521 -7.041230 0.758200 -5.561000 -15.515800 27.970734 11.721351 6.517682 0.293408 -1.205649 9.422431 1.483722 -11.306375 -9.693049 -0.393700 4.028700 -11.157300 -15.224551 -0.195747 2.717968 -1.893102 0.080668 -1.594672 1.064920 -11.920585 7.671838 2.757900 -6.807400 9.082200 -17.377483 -18.035587 -1.112562 145.767083 -39.648709 -106.865827 5.142176 -1.634168 11.597376 -7.125000 0.000000 0.000000 -15.048936 -4.615647 -7.606839 -153.309312 34.424396 -110.102772 -1.561473 3.255019 20.775255 7.125000 0.000000 0.000000 
-0.325624 17.700833 -0.263499 -1.803533 3.606795 2.548188 -13.823887 -20.014492 -0.988209 -0.361713 4.798661 17.277663 -0.416255 3.446280 -7.034412 0.949900 -6.206900 -17.385800 27.914139 11.707354 6.529656 0.301420 -1.177508 9.341891 1.477522 -11.278084 -9.721963 -0.378300 3.950000 -10.936000 -15.262166 -0.168045 2.763127 -1.890590 0.091210 -1.562406 1.093949 -11.963261 7.729960 2.760800 -6.827500 9.134200 -17.354802 -18.121241 -1.068941 145.747754 -39.671256 -106.843850 5.163399 -1.634836 11.457467 -7.125000 0.000000 0.000000 -15.075995 -4.657721 -7.630417 -153.302785 34.432465 -110.094340 -1.584131 3.256328 20.791372 7.125000 0.000000 0.000000 
-0.325318 17.703996 -0.260846 -1.685959 3.639612 2.587169 -13.961434 -20.079326 -0.918658 -0.381899 4.760442 17.178768 -0.474512 3.722013 -7.058782 1.079000 -6.602700 -18.543500 27.766221 11.695972 6.510614 0.306872 -1.158209 9.278745 1.472191 -11.249514 -9.729552 -0.364600 3.878900 -10.736100 -15.328230 -0.158312 2.831539 -1.852309 0.093051 -1.505816 1.120648 -12.016199 7.711475 2.766000 -6.849000 9.154900 -17.325581 -18.175977 -1.082298 145.727888 -39.693957 -106.821371 5.183713 -1.632290 11.359756 -7.125000 0.000000 0.000000 -15.084629 -4.665398 -7.662214 -153.256333 34.476174 -110.060298 -1.591586 3.264670 20.917081 7.125000 0.000000 0.000000 
-0.325522 17.703792 -0.259724 -1.685239 3.660968 2.596982 -13.955475 -20.121073 -0.871065 -0.392278 4.730739 17.093099 -0.466649 3.669975 -7.003710 1.002600 -6.371700 -17.866700 27.761871 11.672028 6.538024 0.312011 -1.135347 9.215786 1.478042 -11.261011 -9.664244 -0.378600 3.951900 -10.941500 -15.368780 -0.168367 2.829948 -1.858500 0.086858 -1.511522 1.111813 -12.013974 7.685993 2.756000 -6.843100 9.143400 -17.317141 -18.187347 -1.076874 145.738857 -39.686328 -106.828467 5.190505 -1.639786 11.297067 -7.125000 0.000000 0.000000 -14.959934 -4.636806 -7.592714 -153.220524 34.492206 -110.037595 -1.580509 3.280922 21.161215 7.125000 0.000000 0.000000 
-0.324604 17.703588 -0.257174 -1.726364 3.662875 2.608110 -13.915798 -20.226764 -0.791113 -0.401475 4.707164 17.020271 -0.433504 3.527111 -7.053987 0.812600 -5.752300 -16.067400 27.802294 11.662476 6.579889 0.319194 -1.109269 9.143961 1.497762 -11.344107 -9.573227 -0.410500 4.112700 -11.394000 -15.375720 -0.179472 2.770247 -1.881446 0.083048 -1.537317 1.108019 -11.977563 7.688625 2.755200 -6.825200 9.132000 -17.344560 -18.162055 -1.046922 145.756869 -39.663150 -106.851612 5.176846 -1.658022 11.270905 -7.125000 0.000000 0.000000 -14.853688 -4.653968 -7.489444 -153.276087 34.423131 -110.078647 -1.573853 3.301449 21.346995 7.125000 0.000000 0.000000 
-0.324502 17.704608 -0.254012 -1.684303 3.630146 2.626716 -13.969263 -20.292636 -0.724012 -0.408643 4.692660 16.980155 -0.424224 3.503803 -7.133163 0.714500 -5.401900 -15.058600 27.753727 11.678663 6.645151 0.330738 -1.067430 9.023254 1.517458 -11.424980 -9.476470 -0.438200 4.247600 -11.774400 -15.474045 -0.131617 2.707632 -1.896742 0.107677 -1.555419 1.071912 -11.982374 7.721088 2.730100 -6.827900 9.129700 -17.306664 -18.220176 -0.980460 145.758394 -39.662143 -106.855036 5.169805 -1.652753 11.311179 -7.125000 0.000000 0.000000 -14.773285 -4.781357 -7.435579 -153.354517 34.327085 -110.139567 -1.567464 3.306258 21.354970 7.125000 0.000000 0.000000 
-0.324400 17.705526 -0.251155 -1.677976 3.614847 2.642550 -13.979016 -20.311057 -0.693809 -0.417611 4.676397 16.931563 -0.459374 3.652776 -7.075407 0.788500 -5.668500 -15.825500 27.742356 11.686206 6.694785 0.340737 -1.030176 8.922447 1.518563 -11.427948 -9.475207 -0.435300 4.234000 -11.735900 -15.582847 -0.050156 2.788309 -1.946446 0.138934 -1.507198 1.121586 -12.080374 7.606648 2.737000 -6.861800 9.093900 -17.202425 -18.371535 -0.999484 145.751053 -39.669609 -106.853194 5.166453 -1.659263 11.435266 -7.125000 0.000000 0.000000 -14.721958 -4.947545 -7.520057 -153.391544 34.264303 -110.175599 -1.549957 3.300008 21.304505 7.125000 0.000000 0.000000 
-0.324910 17.706138 -0.249217 -1.717340 3.609048 2.645146 -13.938892 -20.304588 -0.670795 -0.431662 4.660823 16.878390 -0.522038 3.947705 -7.082718 0.985300 -6.318100 -17.710100 27.779512 11.683850 6.749917 0.349424 -0.994857 8.829976 1.515531 -11.403894 -9.463796 -0.402100 4.070900 -11.276100 -15.569515 -0.028578 2.862816 -1.957065 0.144972 -1.474144 1.130578 -12.095970 7.493964 2.744700 -6.863900 9.054000 -17.190151 -18.404474 -1.052002 145.766641 -39.653158 -106.866399 5.159532 -1.653607 11.468360 -7.125000 0.000000 0.000000 -14.783669 -4.973022 -7.563486 -153.416861 34.244592 -110.195281 -1.546163 3.291574 21.240123 7.125000 0.000000 0.000000 
-0.325420 17.706240 -0.247891 -1.714717 3.596203 2.654435 -13.945010 -20.344449 -0.635338 -0.442267 4.651331 16.846909 -0.564815 4.164314 -7.153728 1.087500 -6.627700 -18.617000 27.769892 11.686241 6.807338 0.359241 -0.956332 8.723617 1.522138 -11.423632 -9.414547 -0.395000 4.035600 -11.177000 -15.605487 -0.023554 2.876509 -1.970696 0.146367 -1.465248 1.035325 -12.035142 7.541096 2.697300 -6.837900 9.067900 -17.148739 -18.422134 -1.100034 145.794647 -39.622633 -106.894144 5.131837 -1.634453 11.404052 -7.125000 0.000000 0.000000 -14.789963 -4.968374 -7.577744 -153.448881 34.217461 -110.214967 -1.564280 3.292940 21.324886 7.125000 0.000000 0.000000 
